# xmcd
#
# Track frame offsets: 
#        150
#        20334
#        37847
#        52423
#        66365
#        74224
#        84614
#        94532
#        116009
#        137868
#        149920
#        162417
#
# Disc length: 2376 seconds
#
# Revision: 0
# Processed by: cddbd v1.5.2PL0 Copyright (c) Steve Scherf et al.
# Submitted via: ExactAudioCopyFreeDBPlugin 1.0
#
DISCID=bc09460c
DTITLE=Acoustic Blues Community - Acoustic Blues Community
DYEAR=1900
DGENRE=Blues
TTITLE0=Call me the Breeze
TTITLE1=Mean to your Queenie
TTITLE2=Bring it on Home
TTITLE3=Mercury Blues
TTITLE4=Canned Heat Medley: Going up the Country
TTITLE5=Canned Heat Medley: On the Road again
TTITLE6=Canned Heat Medley: Let's work together
TTITLE7=After Midnight
TTITLE8=Mississippi Kid
TTITLE9=Stack O'Lee
TTITLE10=Things going on
TTITLE11=Talk to me Baby
EXTD=
EXTT0=
EXTT1=
EXTT2=
EXTT3=
EXTT4=
EXTT5=
EXTT6=
EXTT7=
EXTT8=
EXTT9=
EXTT10=
EXTT11=
PLAYORDER=
